<svg width="138" height="26" viewBox="0 0 138 26" fill="none" xmlns="http://www.w3.org/2000/svg">
<g id="Group 2">
<path id="Path 7" d="M0.255005 17.2241L7.40302 16.7761C7.48028 17.7279 7.80615 18.6428 8.34802 19.4291C8.74385 19.921 9.25122 20.3114 9.82806 20.5681C10.4049 20.8248 11.0346 20.9403 11.665 20.9051C12.5558 20.9633 13.4374 20.6953 14.145 20.1511C14.4118 19.9431 14.6286 19.6779 14.7793 19.375C14.93 19.0722 15.0109 18.7393 15.016 18.4011C15.0095 18.0757 14.932 17.7556 14.7888 17.4633C14.6456 17.171 14.4402 16.9136 14.187 16.7091C13.0206 15.9682 11.708 15.4876 10.339 15.3001C7.04432 14.5594 4.69502 13.5754 3.29102 12.3481C2.60729 11.7754 2.06139 11.056 1.69385 10.2434C1.32631 9.43072 1.14659 8.5457 1.16803 7.65407C1.17168 6.39228 1.54963 5.15995 2.25403 4.11308C3.05973 2.93542 4.19666 2.02327 5.521 1.49208C7.43024 0.777794 9.46328 0.453396 11.5 0.538068C14.6067 0.538068 16.9754 1.11574 18.606 2.27107C19.4594 2.92684 20.1612 3.75903 20.6636 4.7108C21.166 5.66257 21.4571 6.71154 21.517 7.78608L14.436 8.20009C14.3414 7.28715 13.9203 6.4391 13.25 5.81209C12.5304 5.27696 11.6452 5.01279 10.75 5.06608C10.0472 5.01472 9.34867 5.21147 8.776 5.62208C8.56889 5.78128 8.40123 5.98606 8.28607 6.22053C8.17092 6.45501 8.11136 6.71285 8.112 6.97407C8.11857 7.17818 8.17126 7.37816 8.26617 7.55897C8.36108 7.73979 8.49572 7.89675 8.65997 8.01808C9.42372 8.49943 10.2841 8.8067 11.18 8.91807C13.6083 9.35544 15.9768 10.0764 18.237 11.0661C19.5034 11.6547 20.5779 12.5889 21.337 13.7611C21.9877 14.848 22.3235 16.0944 22.307 17.3611C22.3144 18.8951 21.8638 20.3965 21.013 21.6731C20.1305 23.0025 18.8749 24.0416 17.404 24.6601C15.5428 25.3975 13.5499 25.7446 11.549 25.6801C7.41568 25.6801 4.55201 24.8841 2.95801 23.2921C1.34976 21.6649 0.388918 19.5079 0.255005 17.2241Z" fill="black"/>
<path id="Path 8" d="M42.281 15.3161L48.865 17.3061C48.502 18.9785 47.7897 20.5552 46.775 21.9331C45.8495 23.15 44.6315 24.1132 43.234 24.7331C41.5252 25.419 39.6922 25.7409 37.852 25.6781C35.6357 25.7579 33.4278 25.3652 31.375 24.5261C29.562 23.6318 28.0533 22.2222 27.038 20.4741C25.7388 18.2215 25.1059 15.6463 25.2129 13.0481C25.2129 9.02614 26.2827 5.93513 28.422 3.77513C30.5613 1.61512 33.5879 0.534794 37.5019 0.534128C40.0435 0.392946 42.5666 1.0416 44.725 2.39112C46.6107 3.81938 47.9814 5.82151 48.631 8.09614L41.9969 9.57212C41.8403 8.99554 41.594 8.44718 41.267 7.94712C40.8655 7.38838 40.3365 6.93346 39.724 6.62013C39.091 6.30507 38.3919 6.14599 37.685 6.15614C36.9095 6.12412 36.1392 6.29725 35.452 6.65806C34.7648 7.01887 34.185 7.55458 33.771 8.21113C32.9782 9.6759 32.6215 11.3371 32.743 12.9981C32.743 15.6928 33.1523 17.5398 33.971 18.5391C34.3901 19.0397 34.9199 19.4358 35.5185 19.6961C36.1171 19.9565 36.7681 20.0739 37.42 20.0391C38.0182 20.0824 38.6188 19.9967 39.1811 19.7878C39.7433 19.5789 40.2541 19.2516 40.6789 18.8281C41.5107 17.8176 42.0631 16.6067 42.281 15.3161Z" fill="black"/>
<path id="Path 9" d="M67.462 21.2541H58.932L57.747 25.2681H50.076L59.215 0.955078H67.41L76.546 25.2681H68.679L67.462 21.2541ZM65.903 15.9971L63.22 7.25708L60.564 15.9971H65.903Z" fill="black"/>
<path id="Path 10" d="M93.882 21.2541H85.352L84.167 25.2681H76.496L85.634 0.955078H93.829L102.965 25.2681H95.098L93.882 21.2541ZM92.323 15.9971L89.64 7.25708L86.985 15.9971H92.323Z" fill="black"/>
<path id="Path 11" d="M104.043 17.2241L111.191 16.7761C111.268 17.7278 111.594 18.6427 112.136 19.4291C112.532 19.921 113.039 20.3114 113.616 20.5681C114.193 20.8248 114.823 20.9403 115.453 20.9051C116.344 20.9633 117.225 20.6953 117.933 20.1511C118.2 19.943 118.416 19.6778 118.567 19.375C118.718 19.0721 118.799 18.7393 118.804 18.4011C118.798 18.0757 118.72 17.7556 118.577 17.4633C118.434 17.171 118.228 16.9136 117.975 16.7091C116.809 15.9682 115.496 15.4876 114.127 15.3001C110.832 14.5594 108.483 13.5754 107.079 12.3481C106.395 11.7754 105.849 11.056 105.482 10.2434C105.114 9.43072 104.935 8.5457 104.956 7.65407C104.96 6.39227 105.338 5.15993 106.042 4.11308C106.848 2.93534 107.985 2.02317 109.309 1.49208C111.218 0.777794 113.251 0.453396 115.288 0.538068C118.395 0.538068 120.764 1.11574 122.395 2.27107C123.248 2.92698 123.95 3.75918 124.452 4.71092C124.955 5.66266 125.246 6.71158 125.306 7.78608L118.224 8.20009C118.13 7.28712 117.708 6.43904 117.038 5.81209C116.318 5.27696 115.433 5.01279 114.538 5.06608C113.835 5.01481 113.137 5.21155 112.564 5.62208C112.357 5.78138 112.19 5.98619 112.075 6.22065C111.96 6.45512 111.9 6.71293 111.901 6.97407C111.907 7.17808 111.96 7.37796 112.055 7.55876C112.15 7.73956 112.284 7.89659 112.448 8.01808C113.212 8.4994 114.072 8.80667 114.968 8.91807C117.396 9.35542 119.765 10.0764 122.025 11.0661C123.291 11.6547 124.366 12.5889 125.125 13.7611C125.776 14.848 126.112 16.0944 126.095 17.3611C126.102 18.8951 125.652 20.3965 124.801 21.6731C123.918 23.0026 122.662 24.0418 121.191 24.6601C119.33 25.3975 117.337 25.7446 115.336 25.6801C111.203 25.6801 108.339 24.8841 106.745 23.2921C105.137 21.6646 104.177 19.5077 104.043 17.2241Z" fill="black"/>
<path id="Path 12" d="M130.181 0.954102H137.71V25.2671H130.181V0.954102Z" fill="black"/>
</g>
</svg>
