<svg width="140" height="33" viewBox="0 0 140 33" fill="none" xmlns="http://www.w3.org/2000/svg">
<g id="Group 1">
<path id="Path 1" d="M15.062 9.228C15.9406 9.8433 16.7167 10.5932 17.362 11.45V0H21.024V31.2H17.595V28.047C16.8389 29.3199 15.7534 30.3653 14.453 31.073C13.1632 31.7125 11.7383 32.0318 10.299 32.004C9.04072 31.9965 7.80022 31.7064 6.66911 31.1551C5.538 30.6038 4.54519 29.8055 3.76402 28.819C1.83158 26.4299 0.848143 23.412 1.002 20.343C0.927951 17.2899 1.80859 14.2898 3.52104 11.761C4.30946 10.5896 5.3857 9.64055 6.64653 9.00488C7.90735 8.36922 9.31038 8.06831 10.721 8.13101C12.2429 8.07643 13.7488 8.45696 15.062 9.228ZM6.56199 26.222C7.08607 27.0372 7.82065 27.6956 8.68809 28.1278C9.55553 28.5599 10.5236 28.7497 11.49 28.677C12.3428 28.6832 13.1839 28.4788 13.9387 28.0819C14.6935 27.6851 15.3387 27.108 15.817 26.402C17.0656 24.4629 17.6596 22.1746 17.512 19.873C17.512 17.0063 16.9294 14.8867 15.764 13.514C15.2494 12.8637 14.5929 12.3396 13.8446 11.9819C13.0964 11.6241 12.2763 11.4422 11.447 11.45C10.5548 11.4268 9.6696 11.6138 8.86302 11.996C8.05644 12.3782 7.35108 12.9448 6.804 13.65C5.618 15.1167 5.02501 17.2753 5.02501 20.126C4.94841 22.2622 5.48005 24.3762 6.55803 26.222H6.56199Z" fill="#212121"/>
<path id="Path 2" d="M26.7141 0.105957H30.587V4.42294H26.7141V0.105957ZM26.7141 8.63495H30.587V31.1949H26.7141V8.63495Z" fill="#212121"/>
<path id="Path 3" d="M36.342 8.52894H40.1091V11.7459C40.8122 10.8261 41.6382 10.0072 42.564 9.31193C43.8217 8.4508 45.315 7.99986 46.8391 8.02094C48.4034 7.94459 49.9453 8.41635 51.199 9.35493C51.9097 9.97997 52.4857 10.7431 52.892 11.5979C53.6481 10.465 54.6734 9.53734 55.876 8.89793C57.071 8.30041 58.3922 7.99928 59.728 8.01994C62.776 8.01994 64.8501 9.11993 65.9501 11.3199C66.6067 12.8258 66.9108 14.4617 66.8391 16.1029V31.1929H62.881V15.4499C62.9494 14.8789 62.8825 14.2999 62.6859 13.7595C62.4892 13.2191 62.1683 12.7325 61.749 12.3389C60.9469 11.7601 59.9758 11.4626 58.9871 11.4929C57.5531 11.4684 56.1666 12.0069 55.1251 12.9929C54.0457 13.9929 53.506 15.6649 53.506 18.0089V31.1939H49.6331V16.4019C49.7038 15.2532 49.5159 14.1033 49.0831 13.0369C48.7503 12.4917 48.2689 12.0527 47.6953 11.7716C47.1217 11.4905 46.4798 11.3789 45.845 11.4499C44.3667 11.4661 42.9551 12.0673 41.9191 13.1219C40.7411 14.2366 40.152 16.2543 40.152 19.1749V31.1959H36.342V8.52894Z" fill="#212121"/>
<path id="Path 4" d="M86.45 9.15299C87.8333 9.80734 89.0167 10.8192 89.878 12.084C90.6615 13.2945 91.178 14.6582 91.393 16.084C91.6637 17.7362 91.7762 19.4104 91.729 21.084H75.242C75.2103 23.0542 75.7739 24.9882 76.859 26.633C77.4044 27.3429 78.118 27.9058 78.9355 28.2709C79.7529 28.636 80.6484 28.7917 81.541 28.724C82.4256 28.7623 83.3076 28.605 84.1244 28.2632C84.9411 27.9215 85.6724 27.4038 86.266 26.747C86.9266 25.9775 87.4052 25.069 87.666 24.089H91.412C91.2619 25.0703 90.9281 26.0144 90.428 26.872C89.9415 27.8004 89.3121 28.6468 88.563 29.38C87.3835 30.5258 85.9062 31.3178 84.299 31.666C83.2872 31.9032 82.2503 32.017 81.211 32.005C79.8724 32.0256 78.5446 31.7618 77.3155 31.231C76.0863 30.7002 74.9839 29.9146 74.081 28.926C72.1324 26.8727 71.1581 23.998 71.1581 20.302C71.0144 17.0842 72.063 13.9266 74.1031 11.434C75.0475 10.3234 76.2304 9.44022 77.5636 8.85032C78.8968 8.26041 80.3459 7.97898 81.803 8.02698C83.4192 8.03004 85.0117 8.41592 86.45 9.15299ZM87.8141 18.053C87.7363 16.6735 87.3715 15.3254 86.743 14.095C86.2293 13.1918 85.4691 12.4535 84.5513 11.9663C83.6335 11.4792 82.596 11.2633 81.56 11.344C80.739 11.3281 79.9242 11.489 79.1709 11.8158C78.4175 12.1426 77.7433 12.6276 77.194 13.238C75.9965 14.5562 75.3309 16.272 75.326 18.053H87.8141Z" fill="#212121"/>
<path id="Path 5" d="M96.5551 8.52909H100.174V11.7461C101.085 10.5537 102.248 9.57801 103.581 8.88908C104.831 8.29924 106.199 8.0024 107.581 8.0211C110.798 8.0211 112.97 9.14275 114.099 11.3861C114.804 13.0497 115.122 14.8516 115.03 16.6561V31.1961H111.157V16.9091C111.203 15.7627 110.993 14.6204 110.543 13.5651C110.218 12.8789 109.692 12.3085 109.034 11.9302C108.375 11.552 107.617 11.3841 106.861 11.4491C106.111 11.429 105.362 11.5218 104.639 11.7241C103.558 12.0592 102.601 12.7071 101.888 13.5861C101.298 14.2497 100.874 15.0438 100.65 15.9031C100.43 17.0285 100.334 18.1747 100.365 19.3211V31.1941H96.5551V8.52909Z" fill="#212121"/>
<path id="Path 6" d="M133.114 9.228C133.993 9.84333 134.769 10.5932 135.414 11.45V0H139.075V31.2H135.647V28.047C134.891 29.32 133.806 30.3655 132.505 31.073C131.216 31.7124 129.791 32.0318 128.352 32.004C127.094 31.9966 125.853 31.7066 124.722 31.1553C123.59 30.604 122.597 29.8056 121.816 28.819C119.884 26.4297 118.9 23.4119 119.054 20.343C118.981 17.2897 119.862 14.2895 121.575 11.761C122.363 10.5896 123.44 9.64055 124.701 9.00488C125.961 8.36922 127.364 8.06831 128.775 8.13101C130.296 8.07692 131.801 8.45743 133.114 9.228ZM124.614 26.222C125.138 27.0373 125.873 27.6958 126.74 28.1279C127.607 28.5601 128.576 28.7498 129.542 28.677C130.395 28.6831 131.236 28.4787 131.99 28.0818C132.745 27.685 133.39 27.108 133.868 26.402C135.118 24.4635 135.714 22.1751 135.568 19.873C135.568 17.0063 134.985 14.8867 133.82 13.514C133.305 12.8638 132.649 12.3398 131.901 11.9821C131.153 11.6244 130.333 11.4424 129.504 11.45C128.612 11.4267 127.727 11.6137 126.92 11.9959C126.113 12.3781 125.408 12.9447 124.861 13.65C123.675 15.1167 123.082 17.2753 123.082 20.126C123.004 22.2617 123.533 24.3758 124.61 26.222H124.614Z" fill="#212121"/>
</g>
</svg>
